<svg xmlns="http://www.w3.org/2000/svg" viewBox="0 0 240 240" role="img" aria-labelledby="title desc">
  <title id="title">Sample Ping Overlay</title>
  <desc id="desc">A simple teal speech bubble with a question mark.</desc>
  <defs>
    <filter id="shadow" x="-20%" y="-20%" width="140%" height="140%">
      <feDropShadow dx="0" dy="8" stdDeviation="10" flood-color="#000000" flood-opacity="0.28" />
    </filter>
  </defs>
  <g filter="url(#shadow)">
    <path
      d="M120 28c51.4 0 93 34.6 93 77.3 0 42.7-41.6 77.3-93 77.3-8.2 0-16.2-.9-23.8-2.6L56 205.4l8.7-39.4C41.8 151.9 27 130 27 105.3 27 62.6 68.6 28 120 28Z"
      fill="#00e6b0"
    />
    <path
      d="M92.7 86.2c1.7-21.1 18.2-33.8 39.8-33.8 22.2 0 38.7 13.3 38.7 33 0 14.5-7.3 23.8-20.1 32.2-11.5 7.6-15.3 12.8-15.3 23.3v4.3h-27.2v-5.6c0-16.5 6.9-26.3 20.4-35 10.7-6.9 14.5-11 14.5-18.4 0-7.9-5.6-13-13.8-13-8.7 0-14.3 5.6-15.1 14.8l-.2 2.5H92.5l.2-4.3Zm13.5 84.4c0-9.4 7.4-16.3 17.4-16.3 10.1 0 17.4 6.9 17.4 16.3 0 9.2-7.3 16.1-17.4 16.1-10 0-17.4-6.9-17.4-16.1Z"
      fill="#05211c"
    />
  </g>
</svg>
